<?xml version="1.0" encoding="UTF-8" standalone="no"?>
<svg
   xmlns:dc="http://purl.org/dc/elements/1.1/"
   xmlns:cc="http://creativecommons.org/ns#"
   xmlns:rdf="http://www.w3.org/1999/02/22-rdf-syntax-ns#"
   xmlns:svg="http://www.w3.org/2000/svg"
   xmlns="http://www.w3.org/2000/svg"
   viewBox="0 0 133.33333 133.33333"
   height="133.33333"
   width="133.33333"
   xml:space="preserve"
   id="svg2"
   version="1.1"><metadata
     id="metadata8"><rdf:RDF><cc:Work
         rdf:about=""><dc:format>image/svg+xml</dc:format><dc:type
           rdf:resource="http://purl.org/dc/dcmitype/StillImage" /></cc:Work></rdf:RDF></metadata><defs
     id="defs6"><clipPath
       id="clipPath18"
       clipPathUnits="userSpaceOnUse"><path
         id="path16"
         d="M 0,100 H 100 V 0 H 0 Z" /></clipPath><clipPath
       id="clipPath26"
       clipPathUnits="userSpaceOnUse"><path
         id="path24"
         d="M 3.74641,94.5242 H 34.1664 V 81.2887 H 3.74641 Z" /></clipPath><clipPath
       id="clipPath50"
       clipPathUnits="userSpaceOnUse"><path
         id="path48"
         d="M 0,100 H 100 V 0 H 0 Z" /></clipPath><clipPath
       id="clipPath58"
       clipPathUnits="userSpaceOnUse"><path
         id="path56"
         d="m 52.5171,31.9189 h 24.792 V 6.20421 h -24.792 z" /></clipPath><clipPath
       id="clipPath78"
       clipPathUnits="userSpaceOnUse"><path
         id="path76"
         d="M 0,100 H 100 V 0 H 0 Z" /></clipPath><clipPath
       id="clipPath86"
       clipPathUnits="userSpaceOnUse"><path
         id="path84"
         d="M 54.7332,41.1341 H 69.3857 V 11.0452 H 54.7332 Z" /></clipPath><clipPath
       id="clipPath114"
       clipPathUnits="userSpaceOnUse"><path
         id="path112"
         d="M 0,100 H 100 V 0 H 0 Z" /></clipPath><clipPath
       id="clipPath122"
       clipPathUnits="userSpaceOnUse"><path
         id="path120"
         d="M 67.4261,43.777 H 85.0595 V 41.0936 H 67.4261 Z" /></clipPath><clipPath
       id="clipPath138"
       clipPathUnits="userSpaceOnUse"><path
         id="path136"
         d="M 64.3595,39.177 H 81.9928 V 36.4936 H 64.3595 Z" /></clipPath><clipPath
       id="clipPath154"
       clipPathUnits="userSpaceOnUse"><path
         id="path152"
         d="M 62.0595,34.577 H 79.6928 V 31.8936 H 62.0595 Z" /></clipPath></defs><g
     transform="matrix(1.3333333,0,0,-1.3333333,0,133.33333)"
     id="g10"><g
       id="g12"><g
         clip-path="url(#clipPath18)"
         id="g14"><g
           id="g20"><g
             id="g22" /><g
             id="g34"><g
               style="opacity:0.39999402"
               id="g32"
               clip-path="url(#clipPath26)"><g
                 id="g30"
                 transform="translate(3.7464,94.5242)"><path
                   id="path28"
                   style="fill:#292929;fill-opacity:1;fill-rule:nonzero;stroke:none"
                   d="m 0,0 6.982,-12.323 14.96,-0.913 8.478,11.41 z" /></g></g></g></g></g></g><g
       transform="translate(26.1874,80.8323)"
       id="g36"><path
         id="path38"
         style="fill:#292929;fill-opacity:1;fill-rule:nonzero;stroke:none"
         d="M 0,0 6.982,-12.323 23.937,10.954 38.898,10.041 5.486,-36.055 -7.979,-11.866 Z" /></g><g
       transform="translate(16.7123,19.6751)"
       id="g40"><path
         id="path42"
         style="fill:#292929;fill-opacity:1;fill-rule:nonzero;stroke:none"
         d="M 0,0 H -14.684 L 7.48,36.512 14.961,23.733 22.94,35.143 29.921,23.733 22.94,12.779 14.961,22.82 Z" /></g><g
       id="g44"><g
         clip-path="url(#clipPath50)"
         id="g46"><g
           id="g52"><g
             id="g54" /><g
             id="g66"><g
               style="opacity:0.75"
               id="g64"
               clip-path="url(#clipPath58)"><g
                 id="g62"
                 transform="translate(52.5171,31.9189)"><path
                   id="path60"
                   style="fill:#292929;fill-opacity:1;fill-rule:nonzero;stroke:none"
                   d="m 0,0 h 16.712 l 8.08,-12.101 -7.713,-13.614 z" /></g></g></g></g></g></g><g
       transform="translate(40.043,55.8143)"
       id="g68"><path
         id="path70"
         style="fill:#292929;fill-opacity:1;fill-rule:nonzero;stroke:none"
         d="m 0,0 7.254,-11.08 30.138,-0.518 -7.455,-12.197 14.848,-0.255 13.533,22.135 0.046,2.282 z" /></g><g
       id="g72"><g
         clip-path="url(#clipPath78)"
         id="g74"><g
           id="g80"><g
             id="g82" /><g
             id="g94"><g
               style="opacity:0.369995"
               id="g92"
               clip-path="url(#clipPath86)"><g
                 id="g90"
                 transform="translate(55.241,41.1341)"><path
                   id="path88"
                   style="fill:#292929;fill-opacity:1;fill-rule:nonzero;stroke:none"
                   d="m 0,0 14.145,-8.145 -0.203,-14.181 -14.45,-7.763 z" /></g></g></g></g></g></g><g
       transform="translate(5.8312,60.6786)"
       id="g96"><path
         id="path98"
         style="fill:#292929;fill-opacity:1;fill-rule:nonzero;stroke:none"
         d="m 0,0 h 13.161 l 4.472,-2.683 H 3.62 Z" /></g><g
       transform="translate(2.7645,56.0786)"
       id="g100"><path
         id="path102"
         style="fill:#292929;fill-opacity:1;fill-rule:nonzero;stroke:none"
         d="m 0,0 h 13.161 l 4.472,-2.683 H 3.62 Z" /></g><g
       transform="translate(0.4644,51.4782)"
       id="g104"><path
         id="path106"
         style="fill:#292929;fill-opacity:1;fill-rule:nonzero;stroke:none"
         d="M 0,0 3.621,-2.683 H 17.634 L 13.162,0 Z" /></g><g
       id="g108"><g
         clip-path="url(#clipPath114)"
         id="g110"><g
           id="g116"><g
             id="g118" /><g
             id="g130"><g
               style="opacity:0.5"
               id="g128"
               clip-path="url(#clipPath122)"><g
                 id="g126"
                 transform="translate(67.4261,43.777)"><path
                   id="path124"
                   style="fill:#ffffff;fill-opacity:1;fill-rule:nonzero;stroke:none"
                   d="m 0,0 h 13.161 l 4.472,-2.683 H 3.62 Z" /></g></g></g></g><g
           id="g132"><g
             id="g134" /><g
             id="g146"><g
               style="opacity:0.5"
               id="g144"
               clip-path="url(#clipPath138)"><g
                 id="g142"
                 transform="translate(64.3595,39.177)"><path
                   id="path140"
                   style="fill:#ffffff;fill-opacity:1;fill-rule:nonzero;stroke:none"
                   d="m 0,0 h 13.161 l 4.472,-2.683 H 3.62 Z" /></g></g></g></g><g
           id="g148"><g
             id="g150" /><g
             id="g162"><g
               style="opacity:0.5"
               id="g160"
               clip-path="url(#clipPath154)"><g
                 id="g158"
                 transform="translate(62.0595,34.577)"><path
                   id="path156"
                   style="fill:#ffffff;fill-opacity:1;fill-rule:nonzero;stroke:none"
                   d="m 0,0 h 13.161 l 4.472,-2.683 H 3.62 Z" /></g></g></g></g></g></g></g></svg>