<?xml version="1.0" encoding="UTF-8" standalone="no"?>
<svg
   xmlns:dc="http://purl.org/dc/elements/1.1/"
   xmlns:cc="http://creativecommons.org/ns#"
   xmlns:rdf="http://www.w3.org/1999/02/22-rdf-syntax-ns#"
   xmlns:svg="http://www.w3.org/2000/svg"
   xmlns="http://www.w3.org/2000/svg"
   viewBox="0 0 533.33331 333.33334"
   height="333.33334"
   width="533.33331"
   xml:space="preserve"
   id="svg2"
   version="1.1"><metadata
     id="metadata8"><rdf:RDF><cc:Work
         rdf:about=""><dc:format>image/svg+xml</dc:format><dc:type
           rdf:resource="http://purl.org/dc/dcmitype/StillImage" /></cc:Work></rdf:RDF></metadata><defs
     id="defs6" /><g
     transform="matrix(1.3333333,0,0,-1.3333333,0,333.33333)"
     id="g10"><g
       transform="translate(27.4464,230.4402)"
       id="g12"><path
         id="path14"
         style="fill:#000000;fill-opacity:1;fill-rule:nonzero;stroke:none"
         d="m 0,0 15.82,-30.511 33.901,-2.26 19.21,28.251 z" /></g><g
       transform="translate(78.2975,196.5395)"
       id="g16"><path
         id="path18"
         style="fill:#000000;fill-opacity:1;fill-rule:nonzero;stroke:none"
         d="M 0,0 15.82,-30.511 54.241,27.121 88.142,24.861 12.43,-89.272 -18.08,-29.381 Z" /></g><g
       transform="translate(56.827,45.1165)"
       id="g20"><path
         id="path22"
         style="fill:#000000;fill-opacity:1;fill-rule:nonzero;stroke:none"
         d="M 0,0 H -33.273 L 16.95,90.402 33.901,58.761 51.981,87.012 67.801,58.761 51.981,31.641 33.901,56.501 Z" /></g><g
       transform="translate(250.2216,163.0322)"
       id="g24"><path
         id="path26"
         style="fill:#000000;fill-opacity:1;fill-rule:nonzero;stroke:none"
         d="m 0,0 18.513,-30.094 75.457,-0.536 -18.271,-33.578 37.174,-0.264 33.169,60.938 0.044,6.242 z" /></g><g
       transform="translate(287.3409,98.2276)"
       id="g28"><path
         id="path30"
         style="fill:#000000;fill-opacity:1;fill-rule:nonzero;stroke:none"
         d="M 0,0 H 37.868 L 56.178,-29.962 38.701,-63.669 Z" /></g><g
       transform="translate(117.6042,134.5959)"
       id="g32"><path
         id="path34"
         style="fill:#000000;fill-opacity:1;fill-rule:nonzero;stroke:none"
         d="m 0,0 16.438,-27.434 68.292,-1.282 -16.892,-30.199 33.643,-0.631 30.666,54.805 0.106,5.649 z" /></g><g
       transform="translate(152.0427,94.7363)"
       id="g36"><path
         id="path38"
         style="fill:#000000;fill-opacity:1;fill-rule:nonzero;stroke:none"
         d="M 0,0 32.052,-20.167 31.593,-55.277 -1.151,-74.499 Z" /></g><g
       transform="translate(17.8203,144.5585)"
       id="g40"><path
         id="path42"
         style="fill:#000000;fill-opacity:1;fill-rule:nonzero;stroke:none"
         d="M 0,0 H 38.797 L 51.981,-7.91 H 10.672 Z" /></g><g
       transform="translate(8.7801,130.9982)"
       id="g44"><path
         id="path46"
         style="fill:#000000;fill-opacity:1;fill-rule:nonzero;stroke:none"
         d="M 0,0 H 38.797 L 51.981,-7.91 H 10.672 Z" /></g><g
       transform="translate(2,117.4379)"
       id="g48"><path
         id="path50"
         style="fill:#000000;fill-opacity:1;fill-rule:nonzero;stroke:none"
         d="M 0,0 H 38.797 L 51.981,-7.91 H 10.672 Z" /></g><g
       transform="translate(253.9951,123.0881)"
       id="g52"><path
         id="path54"
         style="fill:#000000;fill-opacity:1;fill-rule:nonzero;stroke:none"
         d="M 0,0 H 38.797 L 51.981,-7.91 H 10.672 Z" /></g><g
       transform="translate(244.9549,109.5278)"
       id="g56"><path
         id="path58"
         style="fill:#000000;fill-opacity:1;fill-rule:nonzero;stroke:none"
         d="M 0,0 H 38.797 L 51.981,-7.91 H 10.672 Z" /></g><g
       transform="translate(238.1748,95.9675)"
       id="g60"><path
         id="path62"
         style="fill:#000000;fill-opacity:1;fill-rule:nonzero;stroke:none"
         d="M 0,0 H 38.797 L 51.981,-7.91 H 10.672 Z" /></g></g></svg>